<svg width="58" height="48" viewBox="0 0 58 48" fill="none" xmlns="http://www.w3.org/2000/svg">
<path d="M38.7786 42.2825V45.7606L26.8299 46.8707L19.7794 43.1706V46.7227L7.68229 47.7587L0.260742 44.0586V3.43154L11.6157 2.46951L13.6195 4.24556C14.4112 3.50554 15.376 2.88886 16.5139 2.39551C17.6519 1.85283 18.8146 1.53216 20.0021 1.43349C20.2 1.43349 20.3731 1.43349 20.5216 1.43349C20.7195 1.38415 20.9174 1.35949 21.1153 1.35949C23.1439 1.35949 25.024 1.82816 26.7557 2.76552C28.5369 3.70288 29.8975 4.76357 30.8375 5.9476C31.5302 4.66491 32.5692 3.48087 33.9546 2.39551C35.3399 1.26082 37.0222 0.619467 39.0012 0.471462C39.2486 0.471462 39.496 0.471462 39.7434 0.471462C40.0403 0.422128 40.3371 0.397461 40.634 0.397461C43.6521 0.397461 46.4723 0.964809 49.0946 2.0995C51.7168 3.2342 53.8196 4.88691 55.4029 7.05763C57.0356 9.17902 57.852 11.7691 57.852 14.8278V44.9466L45.7549 45.9086L38.7786 42.2825ZM49.6883 11.1277C49.6883 7.72365 48.7977 5.20759 47.0165 3.57955C45.2353 1.9515 43.0089 1.13748 40.3371 1.13748C40.1392 1.13748 39.9413 1.16215 39.7434 1.21148C39.5455 1.21148 39.3228 1.21148 39.0755 1.21148C37.4922 1.35949 36.0821 1.85283 34.8452 2.69152C33.6577 3.53021 32.6929 4.54157 31.9508 5.7256C31.2086 6.90963 30.6891 8.11833 30.3922 9.35169L30.1696 9.27769C29.7738 7.50164 28.8337 5.8736 27.3494 4.39356C25.9146 2.86419 23.8613 2.0995 21.1895 2.0995C20.9916 2.0995 20.7937 2.12417 20.5958 2.17351C20.4474 2.17351 20.2742 2.17351 20.0763 2.17351C17.6519 2.37084 15.6481 3.3082 14.0648 4.98558C12.4816 6.66296 11.492 8.56234 11.0962 10.6837L10.8736 10.7577V3.28354L1.0029 4.09756V43.2446L11.6157 42.4305V18.2319C11.8631 16.9986 12.3579 15.8885 13.1 14.9018C13.8917 13.9151 14.9554 13.3725 16.2913 13.2738H16.8108C17.8498 13.2738 18.6662 13.6438 19.2599 14.3838C19.8536 15.0745 20.1505 16.2339 20.1505 17.8619V42.4305L30.6149 41.4685V17.2699C30.8623 16.0859 31.357 15.0005 32.0992 14.0138C32.8908 13.0271 33.9298 12.4844 35.2162 12.3858H35.7358C36.8243 12.3858 37.6406 12.7311 38.1849 13.4218C38.7786 14.1125 39.0755 15.2718 39.0755 16.8999V41.4685L49.6883 40.5805V11.1277Z" fill="#171C22"/>
</svg>
